# xmcd
#
# Track frame offsets: 
#        150
#        11044
#        23540
#        36162
#        46499
#        57094
#        67306
#        78402
#        89213
#        99884
#        112757
#        124188
#        140509
#        147990
#        159623
#        171625
#        182018
#        191993
#        203117
#        211873
#        222384
#        232791
#        243497
#        253569
#        269172
#
# Disc length: 3951 seconds
#
# Revision: 0
# Processed by: cddbd v1.5.2PL0 Copyright (c) Steve Scherf et al.
# Submitted via: ExactAudioCopyFreeDBPlugin 1.0
#
DISCID=770f6d19
DTITLE=Wilma Lee and Stoney Cooper - Heartbreak Street
DYEAR=2010
DGENRE=Country
TTITLE0=Heartbreak Street
TTITLE1=This Crazy, Crazy World
TTITLE2=Have Faith In Me
TTITLE3=I'm Reading Your Letter Again
TTITLE4=Heartaches Don't Lie
TTITLE5=How It Hurts To Cry Alone
TTITLE6=On The Evening Train
TTITLE7=Please Help Me To Be Wrong
TTITLE8=This World Can't Stand Long
TTITLE9=At The First Fall Of Snow
TTITLE10=I Couldn't Care Less
TTITLE11=Teardrops Falling In The Snow
TTITLE12=The Black Sheep Returned To The Fold
TTITLE13=Trouble Ahead
TTITLE14=Wandering Soul
TTITLE15=X Marks The Spot
TTITLE16=Just For A While
TTITLE17=Each Season Changes You
TTITLE18=It's Just As Well
TTITLE19=Not Anymore
TTITLE20=Row Number Two, Seat Number Three
TTITLE21=This Thing Called Man
TTITLE22=Six More Miles
TTITLE23=The Legend Of The Dogwood Tree
TTITLE24=The Story Of The Three Nails
EXTD=
EXTT0=
EXTT1=
EXTT2=
EXTT3=
EXTT4=
EXTT5=
EXTT6=
EXTT7=
EXTT8=
EXTT9=
EXTT10=
EXTT11=
EXTT12=
EXTT13=
EXTT14=
EXTT15=
EXTT16=
EXTT17=
EXTT18=
EXTT19=
EXTT20=
EXTT21=
EXTT22=
EXTT23=
EXTT24=
PLAYORDER=
